<mxfile host="app.diagrams.net" modified="2021-11-29T21:17:05.944Z" agent="5.0 (Macintosh; Intel Mac OS X 10_15_7) AppleWebKit/605.1.15 (KHTML, like Gecko) Version/15.0 Safari/605.1.15" etag="SSyMwIZHzVEH5ldDMERS" version="15.8.2" type="github">
  <diagram id="prtHgNgQTEPvFCAcTncT" name="Page-1">
    <mxGraphModel dx="1243" dy="903" grid="1" gridSize="10" guides="1" tooltips="1" connect="1" arrows="1" fold="1" page="1" pageScale="1" pageWidth="1169" pageHeight="827" math="0" shadow="0">
      <root>
        <mxCell id="0" />
        <mxCell id="1" parent="0" />
        <mxCell id="dNxyNK7c78bLwvsdeMH5-19" value="Pool" style="swimlane;html=1;childLayout=stackLayout;resizeParent=1;resizeParentMax=0;horizontal=0;startSize=20;horizontalStack=0;" parent="1" vertex="1">
          <mxGeometry x="40" y="190" width="1110" height="600" as="geometry" />
        </mxCell>
        <mxCell id="dNxyNK7c78bLwvsdeMH5-27" value="" style="edgeStyle=orthogonalEdgeStyle;rounded=0;orthogonalLoop=1;jettySize=auto;html=1;dashed=1;endArrow=none;endFill=0;exitX=0.5;exitY=1;exitDx=0;exitDy=0;" parent="dNxyNK7c78bLwvsdeMH5-19" source="sThDQdW0FKnKaE-gTvuN-31" target="dNxyNK7c78bLwvsdeMH5-26" edge="1">
          <mxGeometry relative="1" as="geometry">
            <mxPoint x="159.99999999999977" y="90" as="sourcePoint" />
          </mxGeometry>
        </mxCell>
        <mxCell id="dNxyNK7c78bLwvsdeMH5-20" value="Consultant" style="swimlane;html=1;startSize=20;horizontal=0;" parent="dNxyNK7c78bLwvsdeMH5-19" vertex="1">
          <mxGeometry x="20" width="1090" height="120" as="geometry" />
        </mxCell>
        <mxCell id="sThDQdW0FKnKaE-gTvuN-24" value="Receives&lt;br&gt;Claim" style="whiteSpace=wrap;html=1;rounded=0;fontColor=#000000;" vertex="1" parent="dNxyNK7c78bLwvsdeMH5-20">
          <mxGeometry x="740" y="30" width="80" height="60" as="geometry" />
        </mxCell>
        <mxCell id="sThDQdW0FKnKaE-gTvuN-28" value="Consultant" style="swimlane;html=1;startSize=20;horizontal=0;" vertex="1" parent="dNxyNK7c78bLwvsdeMH5-19">
          <mxGeometry x="20" y="120" width="1090" height="120" as="geometry" />
        </mxCell>
        <mxCell id="sThDQdW0FKnKaE-gTvuN-29" value="" style="edgeStyle=orthogonalEdgeStyle;rounded=0;orthogonalLoop=1;jettySize=auto;html=1;" edge="1" parent="sThDQdW0FKnKaE-gTvuN-28" source="sThDQdW0FKnKaE-gTvuN-30" target="sThDQdW0FKnKaE-gTvuN-31">
          <mxGeometry relative="1" as="geometry" />
        </mxCell>
        <mxCell id="sThDQdW0FKnKaE-gTvuN-30" value="Initiate&lt;br&gt;Claim" style="ellipse;whiteSpace=wrap;html=1;" vertex="1" parent="sThDQdW0FKnKaE-gTvuN-28">
          <mxGeometry x="40" y="40" width="40" height="40" as="geometry" />
        </mxCell>
        <mxCell id="sThDQdW0FKnKaE-gTvuN-31" value="Compile Claim &amp;amp; Issue" style="rounded=0;whiteSpace=wrap;html=1;fontFamily=Helvetica;fontSize=12;fontColor=#000000;align=center;" vertex="1" parent="sThDQdW0FKnKaE-gTvuN-28">
          <mxGeometry x="100" y="30" width="80" height="60" as="geometry" />
        </mxCell>
        <mxCell id="sThDQdW0FKnKaE-gTvuN-32" value="Receives&lt;br&gt;Claim" style="whiteSpace=wrap;html=1;rounded=0;fontColor=#000000;" vertex="1" parent="sThDQdW0FKnKaE-gTvuN-28">
          <mxGeometry x="740" y="30" width="80" height="60" as="geometry" />
        </mxCell>
        <mxCell id="dNxyNK7c78bLwvsdeMH5-21" value="Project Manager&lt;br&gt;" style="swimlane;html=1;startSize=20;horizontal=0;" parent="dNxyNK7c78bLwvsdeMH5-19" vertex="1">
          <mxGeometry x="20" y="240" width="1090" height="120" as="geometry" />
        </mxCell>
        <mxCell id="dNxyNK7c78bLwvsdeMH5-29" value="" style="edgeStyle=orthogonalEdgeStyle;rounded=0;orthogonalLoop=1;jettySize=auto;html=1;endArrow=classic;endFill=1;" parent="dNxyNK7c78bLwvsdeMH5-21" source="dNxyNK7c78bLwvsdeMH5-26" target="dNxyNK7c78bLwvsdeMH5-28" edge="1">
          <mxGeometry relative="1" as="geometry" />
        </mxCell>
        <mxCell id="dNxyNK7c78bLwvsdeMH5-26" value="Receives&lt;br&gt;Claim" style="rounded=0;whiteSpace=wrap;html=1;fontFamily=Helvetica;fontSize=12;fontColor=#000000;align=center;" parent="dNxyNK7c78bLwvsdeMH5-21" vertex="1">
          <mxGeometry x="100" y="30" width="80" height="60" as="geometry" />
        </mxCell>
        <mxCell id="sThDQdW0FKnKaE-gTvuN-13" value="" style="edgeStyle=orthogonalEdgeStyle;rounded=0;orthogonalLoop=1;jettySize=auto;html=1;" edge="1" parent="dNxyNK7c78bLwvsdeMH5-21" source="dNxyNK7c78bLwvsdeMH5-28" target="sThDQdW0FKnKaE-gTvuN-12">
          <mxGeometry relative="1" as="geometry" />
        </mxCell>
        <mxCell id="dNxyNK7c78bLwvsdeMH5-28" value="Adjust&lt;br&gt;(Y/N)" style="rhombus;whiteSpace=wrap;html=1;fontFamily=Helvetica;fontSize=12;fontColor=#000000;align=center;" parent="dNxyNK7c78bLwvsdeMH5-21" vertex="1">
          <mxGeometry x="200" y="30" width="70" height="60" as="geometry" />
        </mxCell>
        <mxCell id="sThDQdW0FKnKaE-gTvuN-12" value="Issues Claim" style="whiteSpace=wrap;html=1;fontColor=#000000;" vertex="1" parent="dNxyNK7c78bLwvsdeMH5-21">
          <mxGeometry x="300" y="30" width="80" height="60" as="geometry" />
        </mxCell>
        <mxCell id="dNxyNK7c78bLwvsdeMH5-22" value="Quantity Surveyor" style="swimlane;html=1;startSize=20;horizontal=0;" parent="dNxyNK7c78bLwvsdeMH5-19" vertex="1">
          <mxGeometry x="20" y="360" width="1090" height="120" as="geometry" />
        </mxCell>
        <mxCell id="sThDQdW0FKnKaE-gTvuN-17" value="" style="edgeStyle=orthogonalEdgeStyle;rounded=0;orthogonalLoop=1;jettySize=auto;html=1;" edge="1" parent="dNxyNK7c78bLwvsdeMH5-22" source="dNxyNK7c78bLwvsdeMH5-34" target="sThDQdW0FKnKaE-gTvuN-16">
          <mxGeometry relative="1" as="geometry" />
        </mxCell>
        <mxCell id="dNxyNK7c78bLwvsdeMH5-34" value="Receives Claim" style="rounded=0;whiteSpace=wrap;html=1;fontFamily=Helvetica;fontSize=12;fontColor=#000000;align=center;" parent="dNxyNK7c78bLwvsdeMH5-22" vertex="1">
          <mxGeometry x="300" y="20" width="80" height="60" as="geometry" />
        </mxCell>
        <mxCell id="sThDQdW0FKnKaE-gTvuN-18" value="" style="edgeStyle=orthogonalEdgeStyle;rounded=0;orthogonalLoop=1;jettySize=auto;html=1;" edge="1" parent="dNxyNK7c78bLwvsdeMH5-22" source="sThDQdW0FKnKaE-gTvuN-16" target="sThDQdW0FKnKaE-gTvuN-10">
          <mxGeometry relative="1" as="geometry" />
        </mxCell>
        <mxCell id="sThDQdW0FKnKaE-gTvuN-16" value="Adjust&lt;br&gt;(Y/N)" style="rhombus;whiteSpace=wrap;html=1;rounded=0;fontColor=#000000;" vertex="1" parent="dNxyNK7c78bLwvsdeMH5-22">
          <mxGeometry x="410" y="20" width="80" height="60" as="geometry" />
        </mxCell>
        <mxCell id="sThDQdW0FKnKaE-gTvuN-10" value="Approves &amp;amp; Issues&amp;nbsp;&lt;br&gt;Claim" style="rounded=0;whiteSpace=wrap;html=1;fontFamily=Helvetica;fontSize=12;fontColor=#000000;align=center;" vertex="1" parent="dNxyNK7c78bLwvsdeMH5-22">
          <mxGeometry x="520" y="20" width="80" height="60" as="geometry" />
        </mxCell>
        <mxCell id="sThDQdW0FKnKaE-gTvuN-8" value="Engineer of Contract" style="swimlane;html=1;startSize=20;horizontal=0;" vertex="1" parent="dNxyNK7c78bLwvsdeMH5-19">
          <mxGeometry x="20" y="480" width="1090" height="120" as="geometry" />
        </mxCell>
        <mxCell id="sThDQdW0FKnKaE-gTvuN-22" value="" style="edgeStyle=orthogonalEdgeStyle;rounded=0;orthogonalLoop=1;jettySize=auto;html=1;" edge="1" parent="sThDQdW0FKnKaE-gTvuN-8" source="sThDQdW0FKnKaE-gTvuN-19" target="sThDQdW0FKnKaE-gTvuN-21">
          <mxGeometry relative="1" as="geometry" />
        </mxCell>
        <mxCell id="sThDQdW0FKnKaE-gTvuN-19" value="Receives Claim" style="rounded=0;whiteSpace=wrap;html=1;fontFamily=Helvetica;fontSize=12;fontColor=#000000;align=center;" vertex="1" parent="sThDQdW0FKnKaE-gTvuN-8">
          <mxGeometry x="520" y="40" width="80" height="60" as="geometry" />
        </mxCell>
        <mxCell id="sThDQdW0FKnKaE-gTvuN-27" value="" style="edgeStyle=orthogonalEdgeStyle;rounded=0;orthogonalLoop=1;jettySize=auto;html=1;" edge="1" parent="sThDQdW0FKnKaE-gTvuN-8" source="sThDQdW0FKnKaE-gTvuN-21" target="sThDQdW0FKnKaE-gTvuN-26">
          <mxGeometry relative="1" as="geometry" />
        </mxCell>
        <mxCell id="sThDQdW0FKnKaE-gTvuN-21" value="Adjust&lt;br&gt;(Y/N)" style="rhombus;whiteSpace=wrap;html=1;rounded=0;fontColor=#000000;" vertex="1" parent="sThDQdW0FKnKaE-gTvuN-8">
          <mxGeometry x="630" y="40" width="80" height="60" as="geometry" />
        </mxCell>
        <mxCell id="sThDQdW0FKnKaE-gTvuN-26" value="Approves &amp;amp; Issues&amp;nbsp;&lt;br&gt;Claim" style="rounded=0;whiteSpace=wrap;html=1;fontFamily=Helvetica;fontSize=12;fontColor=#000000;align=center;" vertex="1" parent="sThDQdW0FKnKaE-gTvuN-8">
          <mxGeometry x="740" y="40" width="80" height="60" as="geometry" />
        </mxCell>
        <mxCell id="sThDQdW0FKnKaE-gTvuN-15" value="" style="edgeStyle=orthogonalEdgeStyle;rounded=0;orthogonalLoop=1;jettySize=auto;html=1;" edge="1" parent="dNxyNK7c78bLwvsdeMH5-19" source="sThDQdW0FKnKaE-gTvuN-12" target="dNxyNK7c78bLwvsdeMH5-34">
          <mxGeometry relative="1" as="geometry" />
        </mxCell>
        <mxCell id="sThDQdW0FKnKaE-gTvuN-20" value="" style="edgeStyle=orthogonalEdgeStyle;rounded=0;orthogonalLoop=1;jettySize=auto;html=1;" edge="1" parent="dNxyNK7c78bLwvsdeMH5-19" source="sThDQdW0FKnKaE-gTvuN-10" target="sThDQdW0FKnKaE-gTvuN-19">
          <mxGeometry relative="1" as="geometry" />
        </mxCell>
        <mxCell id="sThDQdW0FKnKaE-gTvuN-25" value="" style="edgeStyle=orthogonalEdgeStyle;rounded=0;orthogonalLoop=1;jettySize=auto;html=1;exitX=0.5;exitY=0;exitDx=0;exitDy=0;" edge="1" parent="dNxyNK7c78bLwvsdeMH5-19" source="sThDQdW0FKnKaE-gTvuN-26">
          <mxGeometry relative="1" as="geometry">
            <mxPoint x="800" y="210" as="targetPoint" />
          </mxGeometry>
        </mxCell>
        <mxCell id="sThDQdW0FKnKaE-gTvuN-33" value="" style="edgeStyle=orthogonalEdgeStyle;rounded=0;orthogonalLoop=1;jettySize=auto;html=1;" edge="1" parent="dNxyNK7c78bLwvsdeMH5-19" source="sThDQdW0FKnKaE-gTvuN-31" target="dNxyNK7c78bLwvsdeMH5-26">
          <mxGeometry relative="1" as="geometry" />
        </mxCell>
      </root>
    </mxGraphModel>
  </diagram>
</mxfile>
